<svg width='24' height='24' viewBox='0 0 24 24' xmlns='http://www.w3.org/2000/svg' xmlns:xlink='http://www.w3.org/1999/xlink'><rect width='24' height='24' stroke='none' fill='#000000' opacity='0'/>


<g transform="matrix(0.44 0 0 0.44 12 12)" >
<path style="stroke: none; stroke-width: 1; stroke-dasharray: none; stroke-linecap: butt; stroke-dashoffset: 0; stroke-linejoin: miter; stroke-miterlimit: 4; fill: rgb(0,0,0); fill-rule: nonzero; opacity: 1;" transform=" translate(-24.49, -25)" d="M 3.5 8 C 2.9590461251336433 7.992349565681768 2.4558779531425827 8.276562944253993 2.1831684177702146 8.743809274571493 C 1.9104588823978466 9.211055604888992 1.9104588823978463 9.788944395111006 2.183168417770214 10.256190725428507 C 2.4558779531425827 10.723437055746007 2.959046125133643 11.007650434318231 3.4999999999999996 11 L 15.5 11 C 16.547568 11 17.589581 11.080198 18.623047 11.220703 C 19.998473 15.413274 23.06924 18.860831 27.113281 20.699219 L 29.052734 21.580078 C 31.11081 22.515768 33.345393 23 35.605469 23 L 40.853516 23 C 41.592223 23.668514 42.233105 24.278948 42.751953 24.794922 C 43.553077 25.592341 44 26.660798 44 27.787109 C 44 30.131333 42.131333 32 39.787109 32 L 35.689453 32 C 35.555304725425074 31.981756836147436 35.41930427457493 31.981756836147436 35.285156 32 L 30.5 32 C 29.959046125133643 31.992349565681767 29.455877953142583 32.27656294425399 29.183168417770215 32.74380927457149 C 28.910458882397847 33.21105560488899 28.910458882397847 33.78894439511101 29.183168417770215 34.25619072542851 C 29.455877953142583 34.723437055746004 29.959046125133643 35.00765043431823 30.5 35 L 34.878906 35 L 36.878906 37 L 24.984375 37 C 23.790609 37 22.648079 36.526234 21.802734 35.681641 L 20.318359 34.197266 C 19.044666 32.923573 17.357229 32.162456 15.572266 32.029297 C 15.570973 32.0292 15.569653 32.029393 15.568359 32.029297 C 15.382331 32.010126 15.192708 32 15 32 C 14.987417 32 14.975447 32.001869 14.962891 32.001953 L 8.0371094 32.001953 C 8.0245525 32.001869 8.012583 32 8 32 C 7.987417 32 7.9754475 32.001869 7.9628906 32.001953 L 3.5 32.001953 C 2.6832413822163677 31.991142754484304 2.0079477687143097 32.63577729482165 1.9808237474748382 33.452156978917074 C 1.9536997262353666 34.2685366630125 2.5847156652062675 34.95657302818318 3.4003906 35 C 3.1389953 35.641127 3 36.321448 3 37 C 3 38.208333 3.3956641 39.436821 4.2539062 40.402344 C 5.1121484 41.367867 6.4583337 42 8 42 C 9.4035492 42 10.641188 41.472845 11.5 40.650391 C 12.358812 41.472845 13.596451 42 15 42 C 16.541666 42 17.887852 41.367867 18.746094 40.402344 C 19.366575 39.704301 19.736233 38.867904 19.898438 38.001953 C 21.281731 39.279831 23.094242 40 24.984375 40 L 40.5 40 C 41.10655194307977 39.99976216164505 41.653277322119024 39.63428813569247 41.885382335340815 39.073902037490306 C 42.117487348562605 38.51351593928814 41.98929477867838 37.86849921953735 41.560547 37.439453 L 39.121094 35 L 39.787109 35 C 43.752886 35 47 31.752886 47 27.787109 C 47 25.863421 46.230016 24.02255 44.869141 22.667969 C 40.572247 18.394684 28.985256 8 15.5 8 L 3.5 8 z M 22.162109 11.951172 C 27.975594 13.549997 33.296898 16.906167 37.275391 20 L 35.605469 20 C 33.773545 20 31.960893 19.60792 30.292969 18.849609 L 28.355469 17.96875 L 28.353516 17.96875 C 25.630261 16.730331 23.460582 14.587492 22.162109 11.951172 z M 3.5 17 C 2.9590461251336433 16.992349565681767 2.4558779531425827 17.276562944253993 2.1831684177702146 17.743809274571493 C 1.9104588823978466 18.211055604888994 1.9104588823978463 18.788944395111006 2.183168417770214 19.256190725428507 C 2.4558779531425827 19.723437055746007 2.959046125133643 20.007650434318233 3.4999999999999996 20 L 7.0195312 20 L 7.0996094 24 L 3.5 24 C 2.9590461251336433 23.992349565681767 2.4558779531425827 24.276562944253993 2.1831684177702146 24.743809274571493 C 1.9104588823978466 25.211055604888994 1.9104588823978463 25.788944395111006 2.183168417770214 26.256190725428507 C 2.4558779531425827 26.723437055746007 2.959046125133643 27.007650434318233 3.4999999999999996 27 L 15.189453 27 C 16.774045 27 18.08112 25.987138 18.607422 24.716797 C 19.133724 23.446456 18.925217 21.804123 17.804688 20.683594 L 15.205078 18.083984 C 15.20507842375867 18.08333300006896 15.20507842375867 18.08268199993104 15.205078 18.082031 C 14.511433 17.390113 13.570785 17 12.589844 17 L 3.5 17 z M 10.019531 20 L 12.589844 20 C 12.77428 20 12.951761 20.07388 13.083984 20.205078 L 15.683594 22.804688 C 15.949065 23.070158 15.944135 23.307201 15.835938 23.568359 C 15.72774 23.829518 15.564861 24 15.189453 24 L 10.099609 24 L 10.019531 20 z M 7.9765625 35.001953 L 8.0234375 35.001953 C 8.7977539 35.007293 9.1989225 35.246737 9.5039062 35.589844 C 9.8123303 35.936821 10 36.458333 10 37 C 10 37.541667 9.8123302 38.063179 9.5039062 38.410156 C 9.1954824 38.757133 8.791666 39 8 39 C 7.208334 39 6.8045177 38.757133 6.4960938 38.410156 C 6.1876698 38.063179 6 37.541667 6 37 C 6 36.458333 6.1876698 35.936821 6.4960938 35.589844 C 6.8010775 35.246737 7.2022461 35.007293 7.9765625 35.001953 z M 14.976562 35.001953 L 15.013672 35.001953 C 15.20405 35.001953 15.389367 35.035024 15.576172 35.058594 C 16.005061 35.148886 16.282209 35.340435 16.503906 35.589844 C 16.81233 35.936821 17 36.458333 17 37 C 17 37.541667 16.81233 38.063179 16.503906 38.410156 C 16.195482 38.757133 15.791666 39 15 39 C 14.208334 39 13.804518 38.757133 13.496094 38.410156 C 13.18767 38.063179 13 37.541667 13 37 C 13 36.458333 13.18767 35.936821 13.496094 35.589844 C 13.801078 35.246737 14.202246 35.007293 14.976562 35.001953 z" stroke-linecap="round" />
</g>
</svg>